<svg width="587" height="580" viewBox="0 0 587 580" fill="none" xmlns="http://www.w3.org/2000/svg">
<g clip-path="url(#clip0)">
<path opacity="0.18" d="M154.55 114.46C147.84 144.23 146.62 176.57 129.3 201.7C108.43 231.84 69.5101 243.8 44.1301 270.15C11.1901 304.56 8.02007 363.49 37.1801 401.15C53.1801 421.9 76.3401 435.44 96.6001 452.03C135.52 484.12 164.6 528.78 209.22 552.45C257.17 577.83 319.64 573.19 363.32 540.86C403.22 511.33 426.77 462.41 469.59 437.39C490.82 424.95 515.72 419.09 536.21 405.3C568.43 383.58 585.63 342.59 581.21 304.03C576.79 265.47 552.05 230.33 518.49 210.69C499.35 199.56 475.94 191.56 465.81 171.81C457.39 155.46 460.69 135.94 457.88 117.81C454.947 99.8323 445.935 83.4048 432.35 71.27C403.07 45.4 359.35 45.04 320.71 50.65C282.07 56.26 243.96 51.75 207.71 54.65C175.91 57.48 161.63 83.23 154.55 114.46Z" fill="#68E1FD"/>
<path d="M332.94 142.65C343.31 143.75 353.94 145.33 362.59 151.19C366.279 153.783 369.602 156.86 372.47 160.34C386.305 176.289 395.206 195.915 398.09 216.83C400.41 234.4 398.46 252.34 400.9 269.83C402.24 280.07 405.42 290.45 412.49 298.01C419.32 305.21 429.09 308.87 438.49 312.29C439.678 312.547 440.724 313.244 441.42 314.24C442.15 315.58 441.42 317.29 440.69 318.63L427.88 342.42C427.473 343.44 426.742 344.297 425.8 344.86C424.46 345.72 422.63 345.23 421.17 344.74C408.23 340.74 394.81 336.32 385.05 327.05C369.68 312.41 366.75 289.35 364.79 268.24C363.21 288.98 361.62 309.6 359.91 330.34C359.945 332.046 359.524 333.731 358.69 335.22C357.23 337.42 354.18 338.03 351.5 338.4C325.045 342.016 298.398 344.053 271.7 344.5C265.35 344.62 257.91 344.01 254.7 338.64C252.99 335.96 252.87 332.54 252.87 329.37C252.26 308.26 251.77 287.15 251.16 265.92C246.77 277.15 242.25 288.74 234.57 298.13C217.24 319.49 187.57 326.07 160.26 329.13C158.651 320.422 156.49 311.824 153.79 303.39C159.41 303.51 164.65 300.46 169.41 297.39C182.34 288.97 194.79 279.45 204.67 267.5C214.55 255.55 221.67 241.02 222.97 225.65C223.71 217.72 222.85 209.78 222.36 201.85C221.14 179.04 226.36 153.05 250.55 144.39C260.07 140.97 272.55 141.94 282.4 141.46C299.252 140.512 316.152 140.91 332.94 142.65Z" fill="#68E1FD"/>
<path d="M441.28 313.87C440.88 313.293 440.276 312.889 439.59 312.74C438.746 312.726 437.93 313.037 437.31 313.61C428.93 319.75 423.09 329.43 423.31 339.51C423.238 341.038 423.624 342.553 424.42 343.86C425.92 345.96 429.08 346.53 431.6 345.71C434.059 344.759 436.174 343.09 437.67 340.92C440.624 337.081 442.557 332.558 443.29 327.77C443.94 323.56 444.16 317.39 441.28 313.87Z" fill="url(#paint0_linear)"/>
<path d="M152.56 304.34C152.843 303.899 153.289 303.586 153.8 303.47C154.109 303.465 154.416 303.522 154.702 303.637C154.989 303.752 155.25 303.923 155.47 304.14C161.6 308.85 165.86 316.27 165.7 324C165.756 325.168 165.475 326.328 164.89 327.34C164.278 328.101 163.439 328.649 162.496 328.904C161.553 329.159 160.553 329.109 159.64 328.76C157.823 328.013 156.275 326.734 155.2 325.09C153.03 322.111 151.619 318.647 151.09 315C150.62 311.79 150.46 307.04 152.56 304.34Z" fill="url(#paint1_linear)"/>
<path d="M242.16 33.32C235.45 47.11 233.99 62.97 235.57 78.22C237.15 93.47 241.67 108.22 246.06 123C246.348 124.287 246.985 125.47 247.9 126.42C249.12 127.42 250.7 127.27 252.29 127.27L266.08 126.54C266.802 126.566 267.517 126.397 268.15 126.05C268.796 125.355 269.154 124.439 269.15 123.49C269.39 120.44 269.63 117.49 269.88 114.49C268.54 117.79 270.49 121.69 273.42 123.64C276.35 125.59 280.13 126.08 283.67 126.08C289.882 126.211 296.082 125.474 302.09 123.89C302.7 120.35 303.31 116.81 303.92 113.15C302.92 118.27 307.7 123.03 312.83 124.15C317.96 125.27 323.2 123.66 328.08 122.08C329.449 117.408 329.79 112.496 329.08 107.68C327.99 111.68 331.16 116.1 335.19 117.32C339.22 118.54 343.6 117.07 347.02 114.63C348.066 113.943 348.939 113.024 349.574 111.946C350.209 110.868 350.587 109.658 350.68 108.41C355.326 87.6779 353.973 66.0515 346.78 46.06C342.14 33.13 334.94 20.93 324.57 12.06C296.58 -11.82 257.41 2.21 242.16 33.32Z" fill="#3F3D56"/>
<path d="M320.75 144.81C320.51 145.95 320.429 147.118 320.51 148.28C307.08 164.11 290.51 154.86 283.4 149.55C283.848 147.54 284.086 145.489 284.11 143.43C285.49 132.9 286.45 125.32 284.87 121.05C285.11 120.81 285.35 120.44 285.6 120.2C289.99 123.86 295.11 126.54 300.6 126.66C307.06 126.66 312.8 123 317.19 118.12C317.55 131.75 320.99 143.71 320.75 144.81Z" fill="url(#paint2_linear)"/>
<path d="M284.62 121.17L284.74 121.05C284.74 120.93 284.74 121.05 284.62 121.17Z" fill="url(#paint3_linear)"/>
<path d="M330.5 73.71C330.13 87.86 328.06 102.5 320.13 114.34C319.221 115.651 318.243 116.912 317.2 118.12C312.81 123 307.07 126.66 300.61 126.66C294.99 126.66 289.87 123.86 285.61 120.2C285.49 120.07 285.36 120.07 285.24 119.95L284.75 120.95C284.217 119.565 283.384 118.315 282.31 117.29C271.907 106.954 264.667 93.8653 261.44 79.56C258.27 65.65 255.34 53.2 266.2 41.61C272.2 35.26 280.2 31.36 288.65 29.16C295.6 27.33 303.17 26.6 309.88 29.04C318.18 32.04 324.28 39.54 327.33 47.83C330.38 56.12 330.62 64.92 330.5 73.71Z" fill="url(#paint4_linear)"/>
<path d="M456.42 426.45C449.988 431.977 442.031 435.422 433.6 436.33C353.07 443.9 364.91 428.4 310.24 429.62C307.56 429.68 304.92 429.82 302.34 430.03C251.42 434.03 216.27 463.75 170.34 443.78C159.83 439.24 157.61 426.06 159.08 413.19C159.733 407.6 161.014 402.102 162.9 396.8C168.51 381.18 180.84 368.49 194.9 359.47C204.209 353.626 214.073 348.719 224.35 344.82C231.67 341.9 239.11 338.24 247.04 337.5C270.1 335.18 293.77 335.67 316.83 334.82C330.25 334.21 343.68 333.72 356.98 333.23C361.219 332.946 365.477 333.151 369.67 333.84C373.114 334.725 376.433 336.039 379.55 337.75C405.49 350.566 429.717 366.592 451.66 385.45C457.66 390.58 463.74 396.45 465.32 404.24C466.91 412.42 462.76 421.08 456.42 426.45Z" fill="#68E1FD"/>
<path d="M416.12 406.95L393.2 405.07C391.87 404.805 390.489 405.018 389.3 405.67C388.563 406.364 387.924 407.154 387.4 408.02C384.83 411.23 379.94 410.95 376.2 412.65C373.1 414.06 370.87 416.8 368.75 419.46C365.65 423.34 362.42 427.53 361.95 432.46C365.95 433.28 364.64 435.08 368.62 435.89C346.82 433.89 324.53 427.42 301.75 429.94C318.82 423.58 328.26 418.35 372.17 403.6C378.44 401.49 366.91 392.53 373.17 390.34C379.43 388.15 385.93 388.27 392.42 388.34C401.77 388.5 411.17 388.66 420.42 390.17C425.63 391.02 434.59 394.17 432.71 401.17C430.91 407.86 421.26 407.38 416.12 406.95Z" fill="url(#paint5_linear)"/>
<path d="M374.06 401.68L304.95 428.34L302.35 430.03C251.43 434.03 216.28 463.75 170.35 443.78C159.84 439.24 157.62 426.06 159.09 413.19C173.56 435.08 197.83 428.34 197.83 428.34C205.35 432.47 364.04 390.56 364.04 390.56C363.36 394.23 372.52 396.56 372.52 396.56L374.06 401.68Z" fill="url(#paint6_linear)"/>
<path d="M216.35 380.11C223.35 377.74 230.6 370.83 237.9 369.73C242.14 369.09 246.19 367.56 250.37 366.59C259.228 364.566 268.48 365.125 277.03 368.2C279.92 369.2 282.71 370.57 285.67 371.4C289.742 372.415 293.937 372.849 298.13 372.69C319.51 372.51 335.79 369.04 354.28 358.3C355.56 357.55 356.97 356.75 358.44 356.95C359.564 357.265 360.64 357.729 361.64 358.33C365.64 360.1 370.18 357.65 374.55 357.07C379.67 356.39 384.74 358.34 389.55 360.32C395.92 362.97 407.69 371.85 413.94 374.73C416.26 375.79 418.82 377.15 419.54 379.6C417.69 381.24 414.98 381.31 412.54 381.29L383.75 381.1C378.68 381.1 373.52 381.01 368.68 379.47C365.11 378.33 361.82 376.4 358.19 375.47C353.99 374.35 349.55 374.56 345.19 374.92C325.559 376.52 306.231 380.74 287.72 387.47C284.297 388.871 280.752 389.953 277.13 390.7C272.67 391.43 268.13 391.02 263.61 390.7C251.897 389.793 240.163 389.377 228.41 389.45C224.56 389.45 215.87 392.21 212.41 390.04C207.28 386.78 212.64 381.35 216.35 380.11Z" fill="url(#paint7_linear)"/>
<path d="M296.46 431.56C320.145 420.366 344.762 411.262 370.03 404.35C371.62 403.86 373.57 403.25 374.03 401.66C374.23 400.812 374.189 399.925 373.91 399.1C372.2 392.02 368.42 385.68 364.63 379.46C362.07 375.31 359.51 373.6 354.51 374.21C329.242 377.373 304.324 382.887 280.08 390.68" stroke="white" stroke-width="1.68" stroke-miterlimit="10"/>
<path d="M376.5 395.46C385.14 392.642 394.276 391.674 403.314 392.62C412.353 393.566 421.091 396.404 428.96 400.95C430.96 402.17 432.96 403.51 435.31 403.63C437.66 403.75 440.31 402.29 440.43 399.97C440.55 397.9 438.6 396.19 436.77 395.22C433.99 393.744 430.915 392.911 427.77 392.78C425.33 384.97 417.52 380.09 409.96 376.78C402.4 373.47 394.22 370.56 388.96 364.21C387.5 362.51 386.03 360.31 383.84 360.07C382.13 359.82 380.54 360.8 379.2 361.77C374.08 365.68 370.91 372.02 365.05 374.71C363.22 378.25 362 382.27 363.1 386.05C364.229 389.911 366.748 393.216 370.17 395.33C371.155 395.8 372.229 396.055 373.321 396.078C374.412 396.1 375.496 395.89 376.5 395.46Z" fill="url(#paint8_linear)"/>
<path d="M275.1 378.62C272.3 377.62 269.25 378.62 266.32 379.35C262.956 380.117 259.52 380.523 256.07 380.56C252.17 380.56 248.14 380.08 244.23 380.69C241.339 381.282 238.52 382.18 235.82 383.37C228.235 386.175 220.441 388.379 212.51 389.96C209.95 390.45 206.78 391.42 206.29 393.96C205.8 396.5 208.61 398.71 211.17 398.84C213.73 398.97 216.29 397.98 218.86 397.62C221.587 397.375 224.335 397.496 227.03 397.98C236.805 398.918 246.62 399.366 256.44 399.32C258.727 399.403 261.017 399.242 263.27 398.84C266.32 398.1 269 396.15 271.81 394.69C274.62 393.23 282.67 391.39 283.89 388.1C284.99 384.48 278.03 379.56 275.1 378.62Z" fill="url(#paint9_linear)"/>
<path d="M288.65 59.8C288.816 60.8079 289.283 61.7421 289.99 62.48C291.017 63.098 292.219 63.3582 293.41 63.22L309.51 62.85C311.95 62.85 314.51 62.73 316.71 61.51C318.91 60.29 320.49 57.85 319.76 55.41C319.88 57.6 319.88 59.92 320.01 62.12C325.86 62.61 331.72 63.22 337.7 63.7C336.36 52.36 333.91 41.01 328.55 31C323.19 20.99 314.55 12.34 303.66 8.92C298.281 7.29691 292.595 6.9617 287.062 7.94144C281.53 8.92118 276.305 11.1884 271.81 14.56C265.71 19.2 261.32 25.67 257.66 32.25C253.26 39.94 249.48 48.73 249.6 57.76C249.85 69.83 254.12 68.76 263.88 69.59C268.64 69.96 276.08 73.98 280.72 72.28C287.67 69.83 286.09 59.59 287.06 53.61C287.55 55.65 287.79 58.09 288.65 59.8Z" fill="#3F3D56"/>
<path d="M263.35 30.15C272.35 23.68 283.61 20.63 294.83 20.15C298.284 19.9005 301.756 20.2696 305.08 21.24C308.011 22.4399 310.761 24.0419 313.25 26C317.489 28.8375 321.452 32.0649 325.09 35.64C328.862 39.573 331.802 44.2253 333.737 49.3194C335.671 54.4135 336.56 59.845 336.35 65.29C338.05 63.09 338.54 60.29 338.79 57.48C339.339 50.6765 338.378 43.8357 335.976 37.4468C333.574 31.0579 329.789 25.2788 324.894 20.5226C319.998 15.7664 314.112 12.1507 307.656 9.93402C301.201 7.71736 294.335 6.9545 287.55 7.69999C280.814 8.52177 274.283 10.5545 268.27 13.7C265.775 14.887 263.404 16.3173 261.19 17.97C254.48 22.97 249.97 30.54 247.77 38.47C246.43 43.23 245.33 48.84 246.06 53.72C249.12 51.72 250.21 45.06 252.17 41.88C255.179 37.3441 258.964 33.3735 263.35 30.15Z" fill="#68E1FD"/>
<path d="M157.69 311.31C154.52 309.11 141.87 305.66 138.45 303.83C132.84 300.9 127.1 299.31 120.88 302C115.39 304.44 111.24 309.93 111 315.91C110.87 319.32 111.73 323.23 109.65 326.03C108.601 327.273 107.261 328.238 105.75 328.84C101.586 330.896 97.2058 332.479 92.69 333.56C90.9902 333.879 89.3737 334.543 87.94 335.51C86.59 336.61 85.94 338.81 86.94 340.15C87.94 341.49 89.5 341.49 90.94 341.49C96.2914 341.503 101.609 340.638 106.68 338.93C101.685 341.851 97.2606 345.653 93.62 350.15C96.79 351.62 100.62 350.76 103.99 349.91C118.503 346.091 132.511 340.563 145.72 333.44C155.04 328.47 168.91 319 157.69 311.31ZM131.81 317.05C131.73 317.498 131.559 317.925 131.308 318.305C131.057 318.685 130.731 319.01 130.35 319.26C129.759 319.584 129.103 319.771 128.43 319.81C127.82 319.94 127.19 319.94 126.58 319.81C126.028 319.594 125.523 319.275 125.09 318.87C124.294 318.311 123.635 317.579 123.16 316.73C122.842 315.927 122.725 315.058 122.82 314.2C122.84 312.847 123.3 311.538 124.13 310.47C125.26 309.19 126.49 309.33 127.92 309.77C129.35 310.21 130.63 310.44 131.36 311.98C131.665 312.745 131.838 313.557 131.87 314.38C131.986 315.268 131.966 316.168 131.81 317.05Z" fill="url(#paint10_linear)"/>
<path d="M513.52 338.24C502.17 338.85 489.36 338.97 481.19 331.16C475.82 326.16 473.38 318.59 467.64 314.16C465.479 312.517 462.961 311.407 460.291 310.919C457.62 310.43 454.873 310.578 452.27 311.35C448.1 312.64 443.6 315.63 442.07 319.59C441.777 320.397 441.226 321.084 440.503 321.547C439.78 322.009 438.925 322.221 438.07 322.15C432.07 323.15 431.99 326.68 429.3 329.36C426.61 332.04 427 338.36 428.3 341.86C429.16 344.05 431.23 345.39 433.3 346.61C446.396 354.205 461.233 358.283 476.37 358.45C476.778 358.509 477.194 358.486 477.592 358.381C477.991 358.276 478.364 358.092 478.69 357.84C479.69 356.84 478.81 355.03 477.59 354.18C476.37 353.33 474.9 352.59 474.41 351.25C482.41 355.105 491.432 356.303 500.16 354.67V351.25C495.462 350.765 490.946 349.175 486.98 346.61C494.909 347.082 502.856 346.065 510.41 343.61C511.753 343.376 512.968 342.666 513.83 341.61C514.74 340.68 514.74 338.85 513.52 338.24ZM462.24 327.07C461.878 327.701 461.365 328.232 460.747 328.616C460.129 329 459.426 329.224 458.7 329.27C457.249 329.336 455.803 329.059 454.48 328.46C454.014 328.352 453.577 328.146 453.197 327.856C452.817 327.566 452.504 327.197 452.277 326.776C452.051 326.355 451.917 325.89 451.885 325.413C451.853 324.936 451.923 324.458 452.09 324.01C452.193 322.807 452.645 321.66 453.39 320.71C453.887 320.202 454.483 319.801 455.14 319.53C457 318.69 459.37 318.53 460.93 319.86C461.562 320.473 462.049 321.22 462.357 322.045C462.665 322.87 462.785 323.753 462.71 324.63C462.72 325.467 462.561 326.297 462.24 327.07Z" fill="url(#paint11_linear)"/>
<path d="M586.12 568.96C586 569.63 585.85 570.31 585.67 570.96C584.96 573.6 583.75 576.17 581.6 577.73C577.6 580.66 572.09 579.19 567.33 577.85C504.86 559.3 438.85 556.99 373.81 559.67C308.77 562.35 243.99 570.18 178.96 571.56C144.43 572.29 109.9 571.19 75.3699 570.09C57.1899 569.48 39.1299 568.99 20.9499 568.38C16.1899 568.26 11.0699 568.02 6.79988 565.82C2.52988 563.62 -0.890116 558.82 0.209884 554.11C0.939884 550.94 3.49989 548.49 6.05989 546.42C17.0599 537.81 30.7699 533.61 43.7899 528.22C48.4769 526.334 53.0336 524.139 57.4299 521.65C78.4299 509.57 95.0099 487.73 119.05 484.93C135.76 482.93 151.99 491.15 168.83 492.98C185.67 494.81 201.77 490.42 218.12 488.83C232.89 487.12 242.4 490.29 256.19 493.1C290.19 500.18 331.35 494.69 365.19 488.22C380.93 485.17 396.55 481.27 412.41 479.56C431.93 477.48 451.58 479.07 471.1 480.56C494.4 482.27 517.59 484.1 540.89 485.93C543.89 486.18 547.11 486.42 549.55 488.13C551.63 489.47 552.97 491.67 554.19 493.74C559.92 503.26 565.54 512.65 571.27 522.17C579.77 536.56 588.8 552.37 586.12 568.96Z" fill="#68E1FD"/>
<path d="M253.87 205.61C255.7 213.17 253.02 221.1 250.7 228.54C248.38 235.98 246.19 244.16 248.87 251.48C249.87 254.05 251.19 256.24 251.92 258.93C252.65 261.62 252.17 264.66 250.09 266.25" stroke="white" stroke-width="1.68" stroke-miterlimit="10"/>
<path d="M362.1 194.87C357.71 200.48 381.5 220.25 363.56 271.49" stroke="white" stroke-width="1.68" stroke-miterlimit="10"/>
<path d="M229.11 268.36C225.715 274.344 221.692 279.948 217.11 285.08C205.94 297.08 190.43 304.17 174.69 308.75C169.03 310.4 161.94 313.49 162.36 319.38C162.63 323.1 166.24 325.87 169.91 326.47C173.58 327.07 177.31 326.03 180.91 325L197.35 320.23C208.58 316.98 220.2 313.52 228.97 305.8C236.97 298.71 241.85 288.71 245.73 278.72C248.53 271.49 250.96 263.72 249.49 256.1C248.79 252.47 247.22 249.05 246.49 245.42C245.69 241.42 246.19 237.04 246.75 233.07C240.03 243.85 235.81 257.11 229.11 268.36Z" fill="url(#paint12_linear)"/>
<path d="M384.77 297.29C391.283 311.171 401.71 322.846 414.77 330.88C417.17 332.35 420 334.34 419.77 337.14C419.55 339.25 417.44 340.77 415.33 341.01C413.197 341.1 411.076 340.643 409.17 339.68C391.84 332.326 378.022 318.561 370.6 301.26C364.52 286.9 361.77 266.5 368.35 251.84C373.51 253.91 375.12 267.56 376.56 272.75C378.82 281.07 381.11 289.44 384.77 297.29Z" fill="url(#paint13_linear)"/>
<path d="M264.35 293.63C265.487 299.717 266.997 305.728 268.87 311.63C270.65 317.71 272.65 324.11 277.38 328.32C280.85 331.41 285.38 332.93 289.89 334.15C291.324 334.441 292.685 335.019 293.89 335.85C294.49 336.281 294.939 336.889 295.174 337.589C295.409 338.289 295.418 339.045 295.2 339.75C294.41 341.61 291.91 341.85 289.89 341.75C278.684 341.314 267.531 339.977 256.54 337.75C255.734 337.641 254.958 337.368 254.26 336.95C252.55 335.76 252.52 333.28 252.67 331.2C253.8 315.99 254.67 300.97 253.55 285.73C253.36 283.02 254.04 274.31 258.98 275.66C263.35 276.93 263.74 290.1 264.35 293.63Z" fill="url(#paint14_linear)"/>
<path d="M316.35 342.26C337.803 342.087 359.243 341.42 380.67 340.26C379.01 336.64 374.89 334.84 370.99 334.08C367.09 333.32 362.69 332.08 358.88 333.08C354.31 334.28 349.88 336.43 345.26 337.67C335.92 340.26 325.96 342.18 316.35 342.26Z" fill="url(#paint15_linear)"/>
<path d="M282.28 145.72C282.28 145.72 298.28 166.34 322.13 145.72L325.34 150.72C325.34 150.72 312.74 170.19 295.34 163.32C277.94 156.45 278.35 149.16 278.35 149.16L282.28 145.72Z" fill="#68E1FD"/>
<path d="M282.28 145.72C282.28 145.72 298.28 166.34 322.13 145.72L325.34 150.72C325.34 150.72 312.74 170.19 295.34 163.32C277.94 156.45 278.35 149.16 278.35 149.16L282.28 145.72Z" fill="url(#paint16_linear)"/>
<path d="M585.67 570.98C584.96 573.62 583.75 576.19 581.6 577.75C577.6 580.68 572.09 579.21 567.33 577.87C504.86 559.32 438.85 557.01 373.81 559.69C308.77 562.37 243.99 570.18 178.96 571.56C144.43 572.29 109.9 571.19 75.3699 570.09C57.1899 569.48 39.1299 568.99 20.9499 568.38C16.1899 568.26 11.0699 568.02 6.79988 565.82C2.52988 563.62 -0.890116 558.82 0.209884 554.11C0.939884 550.94 3.49989 548.49 6.05989 546.42C17.0599 537.81 30.7699 533.61 43.7899 528.22C33.941 537.219 23.4974 545.544 12.5299 553.14C182.18 587.31 360.05 522.82 529.81 556.41C544.81 559.41 567.45 560.23 580.99 567.21C582.823 568.084 584.426 569.375 585.67 570.98Z" fill="url(#paint17_linear)"/>
<path d="M184.94 498.77C181.61 500.08 178.16 501.46 175.76 504.11C173.36 506.76 172.38 511.11 174.53 513.92C176.68 516.73 180.76 517.03 184.31 517.05L346.63 518.16C353.638 518.341 360.65 518.111 367.63 517.47C386.52 515.35 404.15 507.27 421.4 499.29C423.56 498.29 425.97 497 426.5 494.68C427.31 491.09 423.16 488.49 419.65 487.42C397.42 480.61 373.57 485.71 350.59 489.18C321.878 493.507 292.831 495.204 263.81 494.25C249.31 493.77 234.853 492.637 220.44 490.85C206.35 489.1 198.05 493.64 184.94 498.77Z" fill="url(#paint18_linear)"/>
</g>
<defs>
<linearGradient id="paint0_linear" x1="443.7" y1="329.39" x2="423.3" y2="329.39" gradientUnits="userSpaceOnUse">
<stop offset="0.01"/>
<stop offset="1" stop-opacity="0"/>
</linearGradient>
<linearGradient id="paint1_linear" x1="4318.28" y1="8562.43" x2="4540.64" y2="8562.43" gradientUnits="userSpaceOnUse">
<stop offset="0.01"/>
<stop offset="1" stop-opacity="0"/>
</linearGradient>
<linearGradient id="paint2_linear" x1="289.51" y1="148.47" x2="314.63" y2="122.15" gradientUnits="userSpaceOnUse">
<stop stop-color="#ECC4D7"/>
<stop offset="0.42" stop-color="#EFD4D1"/>
<stop offset="1" stop-color="#F2EAC9"/>
</linearGradient>
<linearGradient id="paint3_linear" x1="334.224" y1="384.282" x2="334.238" y2="384.282" gradientUnits="userSpaceOnUse">
<stop stop-color="#ECC4D7"/>
<stop offset="0.42" stop-color="#EFD4D1"/>
<stop offset="1" stop-color="#F2EAC9"/>
</linearGradient>
<linearGradient id="paint4_linear" x1="30667.5" y1="-52021" x2="32344.3" y2="-47635.4" gradientUnits="userSpaceOnUse">
<stop stop-color="#ECC4D7"/>
<stop offset="0.42" stop-color="#EFD4D1"/>
<stop offset="1" stop-color="#F2EAC9"/>
</linearGradient>
<linearGradient id="paint5_linear" x1="324.36" y1="367.16" x2="413.22" y2="462.9" gradientUnits="userSpaceOnUse">
<stop offset="0.01"/>
<stop offset="0.13" stop-opacity="0.69"/>
<stop offset="1" stop-opacity="0"/>
</linearGradient>
<linearGradient id="paint6_linear" x1="87376.1" y1="28935.7" x2="87091.9" y2="23216" gradientUnits="userSpaceOnUse">
<stop offset="0.01"/>
<stop offset="0.13" stop-opacity="0.69"/>
<stop offset="1" stop-opacity="0"/>
</linearGradient>
<linearGradient id="paint7_linear" x1="93315.1" y1="15548.4" x2="93298.4" y2="11700.9" gradientUnits="userSpaceOnUse">
<stop offset="0.01"/>
<stop offset="0.13" stop-opacity="0.69"/>
<stop offset="1" stop-opacity="0"/>
</linearGradient>
<linearGradient id="paint8_linear" x1="38563.4" y1="-8920.04" x2="44611.1" y2="-8920.04" gradientUnits="userSpaceOnUse">
<stop stop-color="#ECC4D7"/>
<stop offset="0.42" stop-color="#EFD4D1"/>
<stop offset="1" stop-color="#F2EAC9"/>
</linearGradient>
<linearGradient id="paint9_linear" x1="26241.5" y1="-4080.15" x2="32289.9" y2="-4080.15" gradientUnits="userSpaceOnUse">
<stop stop-color="#ECC4D7"/>
<stop offset="0.42" stop-color="#EFD4D1"/>
<stop offset="1" stop-color="#F2EAC9"/>
</linearGradient>
<linearGradient id="paint10_linear" x1="16311.7" y1="17020.2" x2="22010.5" y2="17020.2" gradientUnits="userSpaceOnUse">
<stop stop-color="#ECC4D7"/>
<stop offset="0.42" stop-color="#EFD4D1"/>
<stop offset="1" stop-color="#F2EAC9"/>
</linearGradient>
<linearGradient id="paint11_linear" x1="48913.3" y1="16626.8" x2="56502.6" y2="16626.8" gradientUnits="userSpaceOnUse">
<stop stop-color="#ECC4D7"/>
<stop offset="0.42" stop-color="#EFD4D1"/>
<stop offset="1" stop-color="#F2EAC9"/>
</linearGradient>
<linearGradient id="paint12_linear" x1="37498.7" y1="33539.7" x2="28917.4" y2="27338.3" gradientUnits="userSpaceOnUse">
<stop offset="0.01"/>
<stop offset="1" stop-opacity="0"/>
</linearGradient>
<linearGradient id="paint13_linear" x1="23390.5" y1="29122.5" x2="29184.7" y2="28399.7" gradientUnits="userSpaceOnUse">
<stop offset="0.01"/>
<stop offset="1" stop-opacity="0"/>
</linearGradient>
<linearGradient id="paint14_linear" x1="15063" y1="23875.8" x2="18966.5" y2="22067" gradientUnits="userSpaceOnUse">
<stop offset="0.01"/>
<stop offset="0.13" stop-opacity="0.69"/>
<stop offset="1" stop-opacity="0"/>
</linearGradient>
<linearGradient id="paint15_linear" x1="28396.5" y1="3281.56" x2="28540.4" y2="4205.46" gradientUnits="userSpaceOnUse">
<stop offset="0.01"/>
<stop offset="1" stop-opacity="0"/>
</linearGradient>
<linearGradient id="paint16_linear" x1="20156.4" y1="3724.62" x2="20251.1" y2="2750.16" gradientUnits="userSpaceOnUse">
<stop offset="0.01"/>
<stop offset="0.13" stop-opacity="0.69"/>
<stop offset="1" stop-opacity="0"/>
</linearGradient>
<linearGradient id="paint17_linear" x1="248077" y1="31822.7" x2="248049" y2="25629.3" gradientUnits="userSpaceOnUse">
<stop offset="0.01"/>
<stop offset="0.13" stop-opacity="0.69"/>
<stop offset="1" stop-opacity="0"/>
</linearGradient>
<linearGradient id="paint18_linear" x1="108339" y1="15804.6" x2="108351" y2="19514.9" gradientUnits="userSpaceOnUse">
<stop offset="0.01"/>
<stop offset="0.13" stop-opacity="0.69"/>
<stop offset="1" stop-opacity="0"/>
</linearGradient>
<clipPath id="clip0">
<rect width="586.6" height="579.45" fill="white"/>
</clipPath>
</defs>
</svg>
