<svg width="32" height="32" viewBox="0 0 32 32" fill="none" xmlns="http://www.w3.org/2000/svg">
<g clip-path="url(#clip0)">
<path d="M32 16C32 24.8365 24.8365 32 16 32C7.1635 32 0 24.8365 0 16C0 7.1635 7.1635 0 16 0C24.8365 0 32 7.1635 32 16Z" fill="#EDEDED"/>
<path d="M28.5218 16C28.5218 22.9156 22.9156 28.5218 16 28.5218C9.08446 28.5218 3.47827 22.9156 3.47827 16C3.47827 9.08446 9.08446 3.47827 16 3.47827C22.9156 3.47827 28.5218 9.08446 28.5218 16Z" fill="#C6C6C6"/>
<path d="M28.3618 18.0067C27.4015 23.9683 22.2325 28.5217 16 28.5217C9.06402 28.5217 3.47821 22.9359 3.47827 15.9999C3.47833 9.76738 8.03171 4.59851 13.9933 3.63813C15.0469 3.46838 16 4.29026 16 5.35738C16 6.21382 15.3756 6.93713 14.5305 7.07519C14.5055 7.07932 14.4806 7.08401 14.4556 7.08826C14.9576 7.00194 15.4734 6.95644 16 6.95644C20.9946 6.95644 25.0435 11.0053 25.0435 15.9999C25.0435 16.5263 24.998 17.042 24.9117 17.5438C24.916 17.519 24.9207 17.4944 24.9247 17.4694C25.0628 16.6243 25.7861 15.9999 26.6426 15.9999C27.7097 15.9999 28.5315 16.9531 28.3618 18.0067Z" fill="#969696"/>
<path d="M21.5652 15.9999C21.5652 19.0735 19.0736 21.5651 16 21.5651C15.5313 21.5651 15.0764 21.5065 14.6415 21.3973C14.655 21.4007 14.6682 21.4047 14.6817 21.408C15.4577 21.5965 16 22.297 16 23.0953C16 24.22 14.9478 25.0533 13.855 24.7875C9.89586 23.8244 6.95654 20.2554 6.95654 15.9999C6.95654 11.7444 9.89579 8.17541 13.855 7.21235C14.9478 6.94653 16 7.77978 16 8.90447C16 9.70285 15.4575 10.4033 14.6818 10.5918C14.6682 10.595 14.6549 10.5991 14.6414 10.6025C15.0763 10.4933 15.5312 10.4347 16 10.4347C19.0737 10.4347 21.5652 12.9263 21.5652 15.9999Z" fill="#EDEDED"/>
<path d="M32 16C32 24.8365 24.8366 31.9999 16.0001 32C7.18513 32 -6.24996e-05 24.8148 4.07737e-10 15.9998C6.25004e-05 7.81485 6.14619 1.06528 14.0751 0.114597C15.0993 -0.00821538 16 0.795222 16 1.82691V1.85816C16 2.73591 15.3392 3.46472 14.4679 3.57097C14.3191 3.58916 14.1714 3.61072 14.0243 3.63397C15.0654 3.48529 16 4.30079 16 5.35741C16 6.21385 15.3756 6.93716 14.5305 7.07522C14.308 7.1116 14.0884 7.15647 13.8717 7.20879C14.9584 6.9556 16 7.78566 16 8.90454C16 9.70291 15.4575 10.4034 14.6818 10.5918C12.2444 11.1838 10.4348 13.3806 10.4348 16C10.4348 18.6194 12.2445 20.8161 14.6818 21.4081C15.4576 21.5965 16 22.297 16 23.0954C16 24.1762 15.0282 24.9872 13.9826 24.8131V24.818C14.5623 25.1362 15.3065 25.1788 16.0001 25.1942C20.9565 25.3043 24.4691 21.7565 25.1711 17.4608C25.3091 16.6157 25.7863 16 26.6426 16C27.677 16 28.4809 16.8956 28.3746 17.9102C28.4742 17.2663 28.525 16.6068 28.5216 15.9355C28.5071 13.0497 27.5164 10.3949 25.8628 8.28416C25.3232 7.59535 25.3901 6.60985 26.0088 5.9911C26.7461 5.25385 27.9637 5.32491 28.6064 6.14597C30.7326 8.86222 32 12.2831 32 16Z" fill="#98C7E5"/>
<path d="M16 28.5217C9.06402 28.5217 3.47821 22.9359 3.47827 15.9999C3.47833 9.76738 8.03171 4.59851 13.9933 3.63813C15.0469 3.46838 16 4.29026 16 5.35738C16 6.21382 15.3756 6.93713 14.5305 7.07519C14.308 7.11157 14.0885 7.15644 13.8717 7.20876C14.9585 6.95557 16 7.78563 16 8.90451C16 9.70288 15.4575 10.4034 14.6818 10.5918C12.2445 11.1838 10.4348 13.3806 10.4348 15.9999C10.4348 18.6193 12.2445 20.8161 14.6818 21.4081C15.4576 21.5965 16 22.297 16 23.0954C16 24.1761 15.0283 24.9872 13.9826 24.8131V24.818C14.6312 24.9653 15.3063 25.0434 16 25.0434V28.5217Z" fill="#FFDB57"/>
<path d="M24.9247 17.4696C25.0628 16.6244 25.7861 16.0001 26.6426 16.0001C27.7097 16.0001 28.5316 16.9532 28.3618 18.0068C27.4015 23.9684 22.2325 28.5218 16 28.5218C9.06402 28.5218 3.47821 22.936 3.47827 16C3.47833 9.76749 8.03171 4.59861 13.9933 3.63824C15.0469 3.46855 16 4.29036 16 5.35749C16 6.21393 15.3756 6.93724 14.5305 7.0753C10.2349 7.77724 6.95671 11.5056 6.95652 15.9997C6.9564 21.0009 10.999 25.0436 16.0001 25.0435C20.4943 25.0436 24.2228 21.7652 24.9247 17.4696Z" fill="#FF6029"/>
</g>
<defs>
<clipPath id="clip0">
<rect width="32" height="32" fill="white"/>
</clipPath>
</defs>
</svg>
