<svg width="32" height="32" viewBox="0 0 32 32" fill="none" xmlns="http://www.w3.org/2000/svg">
<g clip-path="url(#clip0)">
<path d="M27.1304 27.826H29.9131C31.0657 27.826 32 28.7604 32 29.913C32 31.0657 31.0657 32 29.9131 32H2.08694C0.934312 32 0 31.0657 0 29.9131C0 28.7604 0.934312 27.8261 2.08694 27.8261H6.26088H27.1304V27.826Z" fill="#C6C6C6"/>
<path d="M22.5107 4.06537L28.5217 29.913H6.26086L12.2719 4.06537C12.8256 1.68481 14.9471 0 17.3913 0C19.8355 0 21.957 1.68481 22.5107 4.06537Z" fill="#73A4BC"/>
<path d="M17.7125 16.232L20.8696 29.9131H3.47827L6.6354 16.232C7.23058 13.653 9.52708 11.826 12.1739 11.826C14.8208 11.826 17.1172 13.653 17.7125 16.232Z" fill="#FF6029"/>
<path d="M17.7124 16.232L20.8696 29.9131H6.26086L10.4011 12.1104C10.9619 11.9262 11.5582 11.8262 12.1739 11.8262C14.8207 11.8261 17.1172 13.653 17.7124 16.232Z" fill="#B7441C"/>
<path d="M29.7391 29.9131C29.7391 30.2013 29.5056 30.4349 29.2174 30.4349H2.78261C2.49443 30.4349 2.26086 30.2014 2.26086 29.9131C2.26086 29.6249 2.49436 29.3914 2.78261 29.3914H29.2174C29.5056 29.3914 29.7391 29.6249 29.7391 29.9131Z" fill="#777777"/>
</g>
<defs>
<clipPath id="clip0">
<rect width="32" height="32" fill="white"/>
</clipPath>
</defs>
</svg>
