<svg width="16" height="16" viewBox="0 0 16 16" fill="none" xmlns="http://www.w3.org/2000/svg">
<g clip-path="url(#clip0)">
<path d="M9.39131 0C13.0412 0 16 2.95881 16 6.60869C16 10.2586 13.0412 13.2174 9.39131 13.2174C5.74144 13.2174 2.78259 10.2586 2.78259 6.60869C2.78259 2.95881 5.74144 0 9.39131 0Z" fill="#73A4BC"/>
<path d="M4.52175 6.95654C7.01903 6.95654 9.0435 8.98098 9.0435 11.4783C9.0435 13.9756 7.01903 16 4.52175 16C2.02447 16 0 13.9755 0 11.4783C0 8.98098 2.02444 6.95654 4.52175 6.95654Z" fill="#FF6029"/>
<path d="M2.81726 7.28917C3.34332 7.07492 3.91867 6.95654 4.5217 6.95654C7.01898 6.95654 9.04345 8.98098 9.04345 11.4783C9.04345 12.0814 8.92507 12.6567 8.71082 13.1827C5.60436 12.865 3.13501 10.3956 2.81726 7.28917Z" fill="#B7441C"/>
</g>
<defs>
<clipPath id="clip0">
<rect width="16" height="16" fill="white"/>
</clipPath>
</defs>
</svg>
