<svg width="32" height="32" viewBox="0 0 32 32" fill="none" xmlns="http://www.w3.org/2000/svg">
<g clip-path="url(#clip0)">
<path d="M29.2174 30.6087H4.17398C2.63723 30.6087 1.39136 29.3629 1.39136 27.8261V2.78267C1.39136 2.01423 2.01423 1.39136 2.78267 1.39136H29.2175C29.9859 1.39136 30.6088 2.01423 30.6088 2.78267V29.2175C30.6087 29.9859 29.9859 30.6087 29.2174 30.6087Z" fill="#EDEDED"/>
<path d="M31.8481 30.4559L30.4568 31.8472C30.3548 31.949 30.2213 32 30.0878 32C29.9543 32 29.8207 31.9491 29.7188 31.8472C29.515 31.6434 29.515 31.3131 29.7188 31.1094L30.2195 30.6087H3.30529C2.25048 30.6087 1.39223 29.7505 1.39223 28.6956V1.78131L0.891664 2.282C0.687851 2.48575 0.357539 2.48575 0.153789 2.282C-0.0499609 2.07825 -0.0499609 1.74788 0.153789 1.54419L1.54504 0.152812C1.74885 -0.0509375 2.07916 -0.0509375 2.28291 0.152812L3.67423 1.54412C3.87798 1.74787 3.87798 2.07825 3.67423 2.28194C3.57229 2.38375 3.43873 2.43475 3.30523 2.43475C3.17173 2.43475 3.03816 2.38381 2.93623 2.28194L2.43566 1.78125V28.6956C2.43566 29.1751 2.82573 29.5652 3.30523 29.5652H30.2195L29.7188 29.0645C29.5151 28.8608 29.5151 28.5304 29.7188 28.3267C29.9227 28.1229 30.253 28.1229 30.4567 28.3267L31.848 29.718C32.0518 29.9218 32.0518 30.2522 31.8481 30.4559Z" fill="#777777"/>
<path d="M6.95644 27.1304H6.26082C5.49238 27.1304 4.86951 26.5076 4.86951 25.7391V11.1304C4.86951 10.362 5.49238 9.73914 6.26082 9.73914H6.95644C7.72488 9.73914 8.34776 10.362 8.34776 11.1304V25.7391C8.34776 26.5076 7.72488 27.1304 6.95644 27.1304ZM19.9999 27.1304H20.6956C21.464 27.1304 22.0869 26.5076 22.0869 25.7391V15.3044C22.0869 14.5359 21.464 13.9131 20.6956 13.9131H19.9999C19.2315 13.9131 18.6086 14.5359 18.6086 15.3044V25.7392C18.6086 26.5076 19.2315 27.1304 19.9999 27.1304Z" fill="#FF6029"/>
<path d="M12.6956 27.1304H12C11.2315 27.1304 10.6086 26.5076 10.6086 25.7391V1.39131C10.6086 0.622875 11.2315 0 12 0H12.6956C13.464 0 14.0869 0.622875 14.0869 1.39131V25.7391C14.0869 26.5076 13.464 27.1304 12.6956 27.1304ZM25.7391 27.1304H26.4347C27.2031 27.1304 27.826 26.5076 27.826 25.7391V4.86956C27.826 4.10113 27.2031 3.47825 26.4347 3.47825H25.7391C24.9706 3.47825 24.3478 4.10113 24.3478 4.86956V25.7391C24.3478 26.5076 24.9706 27.1304 25.7391 27.1304Z" fill="#73A4BC"/>
</g>
<defs>
<clipPath id="clip0">
<rect width="32" height="32" fill="white"/>
</clipPath>
</defs>
</svg>
