	<svg  viewBox="0 0 100 18" xmlns="http://www.w3.org/2000/svg" class="sample-logo">
		<path class="sample-logo__line" fill-rule="evenodd"
			d="M15.5 8.75C15.5 10.4 15.15 11.85 14.45 13.15C13.75 14.45 12.85 15.45 11.75 16.1C10.85 16.7 9.85 17.05 8.8 17.25C7.75 17.4 6.6 17.5 5.4 17.5H0V0H5.4C6.6 0 7.75 0.1 8.85 0.25C9.9 0.4 10.9 0.8 11.85 1.4C13 2.15 13.9 3.15 14.55 4.4C15.15 5.6 15.5 7.1 15.5 8.75ZM23 17.5L27 11.3V6L23 0V6.2H17.5V0H13V1.9C13.8 2.55 14.5 3.35 15 4.35C15.65 5.6 16 7.05 16 8.75C16 10.4 15.65 11.85 14.95 13.15C14.4 14.1 13.75 14.9 13 15.55V17.5H17.5V10.15H23V17.5ZM31.75 11.3L35.05 17.5H40L33.95 8.45L40 0H35.05L31.75 5.1L28.45 0H23.5L29 8.45L23.5 17.5H28.45L31.75 11.3ZM8.80005 3.89999C9.60005 4.34999 10.2 4.99999 10.6 5.79999C11 6.59999 11.2 7.59999 11.25 8.69999C11.25 9.89999 11.05 10.85 10.7 11.65C10.3 12.45 9.75005 13.1 9.05005 13.55C8.45005 13.95 7.80005 14.15 7.15005 14.2C6.45005 14.25 5.65005 14.25 4.65005 14.25H4.55005V3.29999H4.65005C5.55005 3.29999 6.30005 3.29999 6.95005 3.34999C7.60005 3.39999 8.20005 3.54999 8.80005 3.89999Z">
		</path>
	</svg>